<?xml version="1.0" encoding="iso-8859-1"?>
<!-- Generator: Adobe Illustrator 19.0.0, SVG Export Plug-In . SVG Version: 6.00 Build 0)  -->
<svg xmlns="http://www.w3.org/2000/svg" xmlns:xlink="http://www.w3.org/1999/xlink" version="1.1" id="Capa_1" x="0px" y="0px" viewBox="0 0 60 60" style="enable-background:new 0 0 60 60;" xml:space="preserve" width="512px" height="512px">
<g>
	<path d="M59,40.484h-2v-2c0-0.553-0.447-1-1-1h-3v-2c0-0.553-0.447-1-1-1h-4v-18c0-1.636-1.331-2.967-3.033-2.967   c-1.636,0-2.967,1.331-2.967,2.967v2H19.995c-0.027-1.107-0.931-2-2.044-2h-6.902c-1.113,0-2.017,0.893-2.044,2H6v-2   c0-1.636-1.331-2.967-3.033-2.967C1.331,13.517,0,14.848,0,16.483v19v10c0,0.553,0.447,1,1,1h46h12c0.553,0,1-0.447,1-1v-4   C60,40.931,59.553,40.484,59,40.484z M44,16.483c0-0.533,0.434-0.967,1.033-0.967c0.533,0,0.967,0.434,0.967,0.967v18h-2v-6v-9   V16.483z M6,34.484v-5h23.005c0.027,1.107,0.931,2,2.044,2h6.902c1.113,0,2.017-0.893,2.044-2H42v5H6z M38,28.483v0.951   c0,0.027-0.021,0.049-0.049,0.049L31,29.435l0.049-1.951L38,27.532V28.483z M18,18.532v0.951l-0.049,1L11,20.435l0.049-1.951   L18,18.532z M9.001,20.483c0.001,0.062,0.015,0.121,0.022,0.182c0.008,0.068,0.011,0.137,0.025,0.203   C9.063,20.936,9.088,21,9.11,21.066c0.02,0.061,0.035,0.123,0.06,0.182c0.028,0.064,0.065,0.122,0.099,0.183   c0.03,0.054,0.056,0.11,0.09,0.16c0.04,0.058,0.089,0.109,0.134,0.163c0.039,0.045,0.073,0.094,0.115,0.136   c0.052,0.051,0.111,0.093,0.168,0.139c0.045,0.036,0.086,0.076,0.134,0.108c0.063,0.042,0.132,0.073,0.2,0.108   c0.049,0.026,0.095,0.057,0.146,0.078c0.078,0.033,0.161,0.053,0.243,0.076c0.047,0.013,0.091,0.033,0.139,0.043   c0.132,0.027,0.269,0.041,0.409,0.041h6.902c0.14,0,0.277-0.014,0.409-0.041c0.047-0.01,0.09-0.029,0.136-0.042   c0.083-0.023,0.167-0.043,0.245-0.076c0.051-0.022,0.097-0.053,0.146-0.078c0.067-0.035,0.137-0.066,0.2-0.108   c0.048-0.032,0.089-0.072,0.134-0.108c0.057-0.045,0.116-0.088,0.168-0.139c0.042-0.042,0.076-0.09,0.114-0.135   c0.046-0.054,0.095-0.106,0.136-0.164c0.034-0.05,0.06-0.106,0.089-0.159c0.034-0.061,0.072-0.12,0.1-0.185   c0.025-0.058,0.04-0.121,0.06-0.182c0.021-0.066,0.047-0.129,0.062-0.198c0.014-0.066,0.017-0.135,0.025-0.203   c0.007-0.061,0.021-0.119,0.022-0.182H42v7h-2.001c-0.001-0.062-0.015-0.121-0.022-0.182c-0.008-0.068-0.011-0.137-0.025-0.203   c-0.015-0.068-0.04-0.132-0.062-0.198c-0.02-0.061-0.035-0.123-0.06-0.181c-0.028-0.065-0.066-0.124-0.101-0.186   c-0.03-0.053-0.055-0.108-0.089-0.158c-0.04-0.059-0.09-0.11-0.136-0.164c-0.038-0.045-0.072-0.093-0.114-0.135   c-0.052-0.051-0.111-0.093-0.168-0.139c-0.045-0.036-0.086-0.076-0.134-0.108c-0.064-0.043-0.135-0.075-0.203-0.111   c-0.048-0.025-0.092-0.055-0.142-0.076c-0.08-0.034-0.166-0.055-0.25-0.078c-0.044-0.012-0.086-0.031-0.132-0.04   c-0.132-0.027-0.269-0.041-0.409-0.041H31.05c-0.14,0-0.277,0.014-0.409,0.041c-0.046,0.009-0.089,0.029-0.134,0.041   c-0.084,0.023-0.169,0.044-0.248,0.077c-0.05,0.021-0.094,0.051-0.142,0.076c-0.069,0.036-0.139,0.068-0.203,0.111   c-0.048,0.032-0.089,0.072-0.134,0.108c-0.057,0.045-0.116,0.088-0.168,0.139c-0.042,0.042-0.077,0.091-0.115,0.136   c-0.046,0.054-0.094,0.105-0.134,0.163c-0.034,0.05-0.06,0.106-0.09,0.16c-0.034,0.061-0.072,0.119-0.1,0.184   c-0.025,0.058-0.04,0.12-0.06,0.181c-0.021,0.066-0.047,0.13-0.062,0.198c-0.014,0.066-0.017,0.135-0.025,0.203   c-0.007,0.061-0.021,0.119-0.022,0.182H6v-7H9.001z M2,16.483c0-0.533,0.434-0.967,1.033-0.967C3.566,15.517,4,15.95,4,16.483v3v9   v6H2V16.483z M2,36.484h3h38h3v8H2V36.484z M58,44.484H48v-8h3v2c0,0.553,0.447,1,1,1h3v2c0,0.553,0.447,1,1,1h2V44.484z" fill="#FFFFFF"/>
</g>
<g>
</g>
<g>
</g>
<g>
</g>
<g>
</g>
<g>
</g>
<g>
</g>
<g>
</g>
<g>
</g>
<g>
</g>
<g>
</g>
<g>
</g>
<g>
</g>
<g>
</g>
<g>
</g>
<g>
</g>
</svg>
